<svg version="1.1" id="Layer_1" xmlns="http://www.w3.org/2000/svg" xmlns:xlink="http://www.w3.org/1999/xlink" x="0px" y="0px"
	 width="100%" viewBox="0 0 400 400" enable-background="new 0 0 400 400" xml:space="preserve">
<path fill="#FFFFFF" opacity="1.000000" stroke="none" 
	d="
M262.000000,401.000000 
	C174.666672,401.000000 87.833336,401.000000 1.000000,401.000000 
	C1.000000,267.666656 1.000000,134.333328 1.000000,1.000000 
	C134.333328,1.000000 267.666656,1.000000 401.000000,1.000000 
	C401.000000,134.333328 401.000000,267.666656 401.000000,401.000000 
	C354.833344,401.000000 308.666656,401.000000 262.000000,401.000000 
M128.405136,355.038177 
	C146.595093,364.362793 166.105698,369.555237 186.303802,370.716248 
	C200.379074,371.525330 214.645752,370.108429 228.757126,368.882568 
	C243.622650,367.591187 257.597626,362.580383 271.106750,356.400421 
	C293.074280,346.351044 312.795746,333.061127 328.115753,314.185638 
	C336.244873,304.169922 344.045990,293.702789 350.549225,282.593048 
	C362.326965,262.472717 368.817474,240.290009 370.763214,217.136139 
	C371.768951,205.168381 370.648682,192.976746 369.926941,180.919907 
	C368.904877,163.846558 363.971771,147.684830 356.986847,132.166290 
	C344.258850,103.888275 325.586487,80.597977 300.157227,62.443584 
	C274.965271,44.458603 247.114075,33.853851 216.575500,31.289255 
	C200.431030,29.933458 184.091248,30.554819 167.851471,33.802868 
	C134.008972,40.571568 105.118996,56.282127 80.557388,80.101929 
	C70.034966,90.306564 61.063938,101.969238 53.815323,114.763290 
	C44.585751,131.053787 37.837261,148.300705 33.894173,166.713028 
	C30.646162,181.879639 30.637613,197.162231 31.157492,212.444000 
	C31.448730,221.004959 32.901840,229.599258 34.596004,238.024796 
	C38.369083,256.789368 46.002930,274.072052 55.830788,290.440552 
	C65.513565,306.567383 77.479126,320.920929 92.246140,332.375366 
	C103.257591,340.916718 115.782112,347.507477 128.405136,355.038177 
z"/>
<path fill="#000000" opacity="1.000000" stroke="none" 
	d="
M128.018982,355.002563 
	C115.782112,347.507477 103.257591,340.916718 92.246140,332.375366 
	C77.479126,320.920929 65.513565,306.567383 55.830788,290.440552 
	C46.002930,274.072052 38.369083,256.789368 34.596004,238.024796 
	C32.901840,229.599258 31.448730,221.004959 31.157492,212.444000 
	C30.637613,197.162231 30.646162,181.879639 33.894173,166.713028 
	C37.837261,148.300705 44.585751,131.053787 53.815323,114.763290 
	C61.063938,101.969238 70.034966,90.306564 80.557388,80.101929 
	C105.118996,56.282127 134.008972,40.571568 167.851471,33.802868 
	C184.091248,30.554819 200.431030,29.933458 216.575500,31.289255 
	C247.114075,33.853851 274.965271,44.458603 300.157227,62.443584 
	C325.586487,80.597977 344.258850,103.888275 356.986847,132.166290 
	C363.971771,147.684830 368.904877,163.846558 369.926941,180.919907 
	C370.648682,192.976746 371.768951,205.168381 370.763214,217.136139 
	C368.817474,240.290009 362.326965,262.472717 350.549225,282.593048 
	C344.045990,293.702789 336.244873,304.169922 328.115753,314.185638 
	C312.795746,333.061127 293.074280,346.351044 271.106750,356.400421 
	C257.597626,362.580383 243.622650,367.591187 228.757126,368.882568 
	C214.645752,370.108429 200.379074,371.525330 186.303802,370.716248 
	C166.105698,369.555237 146.595093,364.362793 128.018982,355.002563 
M210.290619,161.166458 
	C201.291519,144.319885 192.216675,127.512917 183.369141,110.587112 
	C181.922943,107.820450 180.321304,106.893623 177.255417,106.924301 
	C161.594223,107.081009 145.930649,106.990814 130.267899,106.999245 
	C122.618790,107.003357 121.411919,109.190369 125.074921,116.027328 
	C141.389511,146.478333 157.662338,176.951706 173.957993,207.412857 
	C188.999344,235.529358 204.018600,263.657867 219.192810,291.702484 
	C219.942001,293.087128 222.069763,294.556854 223.572784,294.575195 
	C240.232803,294.778320 256.896698,294.774109 273.558411,294.658447 
	C278.637238,294.623169 280.102753,291.973816 277.810181,287.484741 
	C275.468353,282.899261 273.003021,278.376617 270.576172,273.834808 
	C250.618408,236.484436 230.657028,199.136017 210.290619,161.166458 
M153.222885,232.678741 
	C143.855545,250.260498 134.478882,267.837280 125.125374,285.426392 
	C121.320694,292.581024 122.572800,294.702667 130.585709,294.706787 
	C152.743546,294.718201 174.901398,294.713928 197.059235,294.702179 
	C198.278961,294.701538 199.498611,294.576813 201.269806,294.479584 
	C187.605637,269.148834 174.252792,244.395264 160.557358,219.006561 
	C157.981964,223.860901 155.807495,227.959549 153.222885,232.678741 
M214.512848,106.996025 
	C210.100845,106.996025 205.688828,106.996025 200.608551,106.996025 
	C214.085907,132.453781 227.222961,157.268738 240.539795,182.423279 
	C241.204788,181.473816 241.634460,180.975449 241.938522,180.409576 
	C253.712784,158.498032 265.478882,136.582092 277.237457,114.662125 
	C280.041809,109.434380 278.548950,107.016586 272.417572,107.006943 
	C253.447678,106.977127 234.477707,106.996033 214.512848,106.996025 
z"/>
<path fill="#FDFDFD" opacity="1.000000" stroke="none" 
	d="
M210.493683,161.476715 
	C230.657028,199.136017 250.618408,236.484436 270.576172,273.834808 
	C273.003021,278.376617 275.468353,282.899261 277.810181,287.484741 
	C280.102753,291.973816 278.637238,294.623169 273.558411,294.658447 
	C256.896698,294.774109 240.232803,294.778320 223.572784,294.575195 
	C222.069763,294.556854 219.942001,293.087128 219.192810,291.702484 
	C204.018600,263.657867 188.999344,235.529358 173.957993,207.412857 
	C157.662338,176.951706 141.389511,146.478333 125.074921,116.027328 
	C121.411919,109.190369 122.618790,107.003357 130.267899,106.999245 
	C145.930649,106.990814 161.594223,107.081009 177.255417,106.924301 
	C180.321304,106.893623 181.922943,107.820450 183.369141,110.587112 
	C192.216675,127.512917 201.291519,144.319885 210.493683,161.476715 
z"/>
<path fill="#FBFBFB" opacity="1.000000" stroke="none" 
	d="
M153.427948,232.368469 
	C155.807495,227.959549 157.981964,223.860901 160.557358,219.006561 
	C174.252792,244.395264 187.605637,269.148834 201.269806,294.479584 
	C199.498611,294.576813 198.278961,294.701538 197.059235,294.702179 
	C174.901398,294.713928 152.743546,294.718201 130.585709,294.706787 
	C122.572800,294.702667 121.320694,292.581024 125.125374,285.426392 
	C134.478882,267.837280 143.855545,250.260498 153.427948,232.368469 
z"/>
<path fill="#FDFDFD" opacity="1.000000" stroke="none" 
	d="
M215.010300,106.996025 
	C234.477707,106.996033 253.447678,106.977127 272.417572,107.006943 
	C278.548950,107.016586 280.041809,109.434380 277.237457,114.662125 
	C265.478882,136.582092 253.712784,158.498032 241.938522,180.409576 
	C241.634460,180.975449 241.204788,181.473816 240.539795,182.423279 
	C227.222961,157.268738 214.085907,132.453781 200.608551,106.996025 
	C205.688828,106.996025 210.100845,106.996025 215.010300,106.996025 
z"/>
</svg>